<?xml version="1.0" encoding="utf-8"?>
<!-- Generator: Adobe Illustrator 24.0.2, SVG Export Plug-In . SVG Version: 6.00 Build 0)  -->
<svg version="1.1" id="Layer_1" xmlns="http://www.w3.org/2000/svg" xmlns:xlink="http://www.w3.org/1999/xlink" x="0px" y="0px"
	 viewBox="0 0 1600 1200" style="enable-background:new 0 0 1600 1200;" xml:space="preserve">
<style type="text/css">
	.st0{fill:#013D95;}
	.st1{fill:#00A8F1;}
</style>
<g>
	<g>
		<path class="st0" d="M582.4,609.82c0,42.08-34.11,76.2-76.2,76.2s-76.2-34.11-76.2-76.2c0-42.08,34.11-76.2,76.2-76.2
			c7.66,0,15.05,1.13,22.02,3.24l-0.66,27.93l-0.18,7.25c-0.15,6.68-5.69,11.96-12.37,11.8l-19.01-0.45
			c-6.67-0.15-12.21,5.13-12.35,11.8l-0.56,23.33c-0.16,6.67,5.11,12.21,11.8,12.37l23.31,0.54c6.68,0.16,12.21-5.11,12.37-11.78
			l0.45-19.02c0.16-6.67,5.69-11.94,12.37-11.78l8.09,0.19l28.21,0.66C581.46,596.11,582.4,602.85,582.4,609.82z"/>
		<path class="st1" d="M578.57,571.72h-30.45c-1.1,0-1.98-0.89-1.98-1.98v-29.73c0-1.1,0.89-1.98,1.98-1.98h30.45
			c1.1,0,1.98,0.89,1.98,1.98v29.73C580.56,570.83,579.67,571.72,578.57,571.72z"/>
	</g>
</g>
</svg>
